<svg viewBox="0 0 64 64" xmlns="http://www.w3.org/2000/svg">
<rect width="64" height="64" rx="14" fill="#25D366"/>
<path d="M32 12c-10.9 0-19.7 8.8-19.7 19.7 0 3.5.9 6.8 2.7 9.8L12 52l10.8-3c2.8 1.5 6 2.3 9.2 2.3 10.9 0 19.7-8.8 19.7-19.7S42.9 12 32 12zm10.7 28.7c-.5 1.5-3 2.7-4.2 2.8-1.1.1-2.6.1-4.2-.4-1.2-.4-2.7-.9-4.6-1.9-8-4.1-13.2-12.3-13.6-12.8-.4-.5-3.3-4.4-3.3-8.4 0-4 .2-4.3 1-5.2.5-.6 1.4-.9 2.2-.9h1.6c.5 0 1.2.2 1.8 1.4.7 1.7 2.3 5.7 2.5 6.1.2.4.4.9.1 1.5-.3.6-.5 1-.9 1.6-.4.5-.9 1.1-1.3 1.5-.4.4-.8.8-.3 1.7.5.9 2.1 3.5 4.5 5.6 3.1 2.7 5.7 3.6 6.6 4 .9.3 1.4.3 1.9-.3.6-.6 2.1-2.4 2.7-3.2.7-.8 1.2-.7 2-.4.8.3 5.1 2.4 6 2.8.9.4 1.5.6 1.7 1 .2.4.2 1.7-.3 3.2z" fill="#fff"/>
</svg>